<?xml version="1.0" encoding="iso-8859-1"?>
<!DOCTYPE svg PUBLIC "-//W3C//DTD SVG 1.0//EN" "http://www.w3.org/TR/2001/REC-SVG-20010904/DTD/svg10.dtd">
<!-- Creator: CorelDRAW -->
<svg xmlns="http://www.w3.org/2000/svg" xmlns:odm="http://product.corel.com/CGS/11/cddns/" xml:space="preserve" width="800px" height="147px" style="shape-rendering:geometricPrecision; text-rendering:geometricPrecision; image-rendering:optimizeQuality; fill-rule:evenodd"
     viewBox="0 0 800 148">
 <defs>
  <style type="text/css">
   <![CDATA[
    .str0 {stroke:#E77817;stroke-linecap:square;stroke-linejoin:round}
    .fil2 {fill:none}
    .fil1 {fill:#E77817}
    .fil0 {fill:#FEFEFE}
   ]]>
  </style>
 </defs>
 <g id="Ebene 1">
  <circle class="fil0 str0" cx="735" cy="67" r="59"/>
  <circle class="fil0 str0" cx="735" cy="67" r="44"/>
  <path class="fil1" d="M123 42c-17,-29 -92,-27 -81,46 6,41 53,46 81,22 -25,60 -124,23 -116,-43 5,-47 50,-61 87,-52 4,1 2,-6 6,-4 14,9 23,21 23,31zm-27 -6c9,0 17,3 23,9 7,7 10,16 10,29 0,13 -3,23 -10,30 -6,7 -14,11 -24,11 -6,0 -12,-2 -17,-5 -5,-3 -9,-8 -11,-13 -3,-5 -4,-12 -4,-22 0,-13 3,-23 9,-29 6,-7 14,-10 24,-10zm5 14c0,-5 -2,-7 -5,-7 -4,0 -6,3 -6,8l0 48c0,5 2,8 5,8 4,0 6,-3 6,-8l0 -49zm64 -6c6,-6 13,-8 21,-8 5,0 9,1 12,3 3,3 4,6 4,10l0 54c0,2 1,2 2,3 1,1 2,2 2,4 0,2 0,3 -1,3 0,1 -1,1 -2,1l-21 0c-3,-2 -5,-5 -5,-8l0 -54c0,-3 -1,-4 -5,-4 -2,0 -4,1 -7,2l0 53c0,2 1,3 3,4 1,0 2,1 2,2l0 3c0,1 -2,2 -4,2l-27 0c-1,0 -2,0 -2,-1 -1,0 -1,-1 -1,-2l0 -2c0,-1 1,-2 1,-2 2,-1 2,-1 3,-2 0,-1 0,-2 0,-4l0 -55c0,-1 -1,-2 -2,-3 -1,0 -2,-1 -2,-2l0 -3c0,-1 1,-2 2,-2l25 0c1,0 2,1 2,1 0,0 0,0 0,1l0 6zm51 0l-3 0c-1,0 -1,0 -2,0 0,0 0,-1 0,-1l0 -4c0,-1 0,-2 0,-2 12,-9 16,-13 29,-24 1,-1 1,9 1,10l0 13 5 0c2,0 2,1 2,2l0 4c0,2 0,2 -2,2l-5 0 0 59c0,2 1,3 4,4 1,1 2,1 2,2 0,0 0,1 0,3 0,1 0,2 0,2 0,0 -1,0 -2,0l-24 0c-3,-3 -5,-6 -5,-11l0 -59zm38 -2l0 -4c0,-1 1,-2 3,-2l24 0c2,0 3,1 3,2l0 65c0,1 0,2 0,2 0,0 1,1 2,1 1,0 2,2 2,3 0,3 0,4 0,4 0,1 -1,1 -3,1l-29 0c-1,0 -1,0 -1,-1 0,0 -1,-1 -1,-3 0,-2 1,-3 2,-4 2,0 3,-1 3,-2l0 -56c0,-3 -1,-4 -3,-4 -1,-1 -2,-1 -2,-2zm70 2c6,-6 12,-8 20,-8 5,0 10,1 12,3 3,3 4,6 4,10l0 54c0,2 1,2 2,3 2,1 2,2 2,4 0,2 0,3 0,3 -1,1 -2,1 -3,1l-21 0c-3,-2 -5,-5 -5,-8l0 -54c0,-3 -1,-4 -5,-4 -2,0 -4,1 -6,2l0 53c0,2 1,3 2,4 1,0 2,1 2,2l0 3c0,1 -1,2 -4,2l-27 0c-1,0 -2,0 -2,-1 -1,0 -1,-1 -1,-2l0 -2c0,-1 1,-2 2,-2 1,-1 2,-1 2,-2 0,-1 1,-2 1,-4l0 -55c0,-1 -1,-2 -3,-3 -1,0 -1,-1 -1,-2l0 -3c0,-1 0,-2 2,-2l24 0c1,0 2,1 2,1 0,0 1,0 1,1l0 6zm75 30l0 23c0,3 1,6 2,7 2,2 4,3 6,3 4,0 7,-1 9,-4 3,-2 4,-5 4,-10 0,-2 0,-3 1,-4 0,0 2,0 5,0 3,0 5,0 6,0 0,1 1,2 1,3 0,6 -3,11 -8,16 -5,4 -12,7 -20,7 -9,0 -18,-4 -24,-10 -7,-7 -10,-16 -10,-29 0,-13 3,-23 9,-30 6,-7 14,-10 24,-10 9,0 16,2 21,8 5,6 8,14 8,25l0 5 -34 0zm10 -7l0 -19c0,-3 -2,-5 -5,-5 -4,0 -5,2 -5,5l0 19 10 0zm60 -23c6,-6 13,-8 20,-8 6,0 10,1 13,3 2,3 4,6 4,10l0 54c0,2 0,2 2,3 1,1 1,2 1,4 0,2 0,3 0,3 -1,1 -1,1 -3,1l-21 0c-3,-2 -4,-5 -4,-8l0 -54c0,-3 -2,-4 -5,-4 -2,0 -5,1 -7,2l0 53c0,2 1,3 2,4 2,0 2,1 2,2l0 3c0,1 -1,2 -4,2l-26 0c-2,0 -3,0 -3,-1 0,0 -1,-1 -1,-2l0 -2c0,-1 1,-2 2,-2 1,-1 2,-1 2,-2 1,-1 1,-2 1,-4l0 -55c0,-1 -1,-2 -3,-3 -1,0 -1,-1 -1,-2l0 -3c0,-1 0,-2 2,-2l25 0c1,0 1,1 1,1 1,0 1,0 1,1l0 6zm50 0l-3 0c0,0 -1,0 -1,0 0,0 -1,-1 -1,-1l0 -4 30 -23 0 20 5 0c2,0 3,1 3,2l0 4c0,2 -1,2 -3,2l-5 0 0 59c0,2 2,3 4,4 1,1 2,1 2,2 1,0 1,1 1,3 0,1 0,2 0,2 -1,0 -1,0 -2,0l-24 0c-4,-3 -6,-6 -6,-11l0 -59zm78 15l0 -11c0,-3 -2,-4 -5,-5 -9,-3 -34,10 -32,11l0 -9c2,-3 21,-9 30,-9 6,0 11,0 16,1 5,2 9,4 12,7 2,2 4,6 4,9l0 52c0,0 1,1 2,1 1,1 2,2 2,3 0,1 -1,3 -1,3 -1,1 -2,1 -4,2 -2,0 -5,1 -8,1 -4,0 -8,-1 -10,-2 -3,-1 -5,-3 -6,-6 -5,3 -8,5 -11,6 -3,1 -6,2 -8,2 -7,0 -12,-2 -15,-6 -4,-4 -6,-10 -6,-18 0,-9 5,-20 8,-24 8,-8 21,-4 32,-8zm0 7c-6,2 -9,4 -11,7 -1,2 -1,7 -1,16 0,6 0,10 1,11 1,2 3,3 5,3 4,0 6,-3 6,-8l0 -29zm35 -39l0 -3c0,-1 1,-2 3,-2l23 0c1,0 2,0 3,1 0,0 0,0 0,2l0 79c0,1 1,2 3,3 1,0 1,1 1,2l0 3c0,1 -1,2 -3,2l-28 0c-2,0 -2,-1 -2,-2l0 -3c0,-1 0,-2 2,-3 1,-1 2,-1 2,-1 0,0 0,-1 0,-2l0 -70c0,-2 0,-2 -2,-3 -1,-1 -2,-2 -2,-3z"/>
  <path class="fil2 str0" d="M715 29c0,0 0,1 0,1 0,0 0,1 0,1 0,0 0,0 0,0 1,0 1,0 1,0 1,0 1,0 1,0 0,0 0,-1 -1,-1 0,0 0,0 -1,-1 0,0 0,0 0,0"/>
  <path class="fil1 str0" d="M733 77c0,0 1,0 1,0 1,1 2,1 2,1 1,0 1,0 2,0 1,1 1,1 1,1 0,-1 0,-1 -1,-1 -1,-1 -2,-1 -2,-1 -1,0 -1,0 -2,0 -1,0 -2,-1 -2,-1l-1 0 -2 -1 -2 0 -2 -1c0,0 -1,-1 -1,-1 0,0 -1,-1 -2,-1 0,0 -1,-1 -1,-1 -1,0 -1,0 -2,0 -2,0 -2,0 -2,0 0,0 0,-1 0,-1 0,0 0,0 0,0l-1 0 -1 0c0,0 0,0 0,0 -1,0 -1,0 -1,0l-2 0c0,0 0,0 -1,0 0,-1 0,-1 0,-1 0,0 0,0 0,0 -1,0 -1,1 -1,1 0,0 0,0 0,0 0,0 0,0 1,1 0,1 1,3 1,4 1,0 2,1 2,1 0,0 1,1 1,1 0,0 0,0 0,0 0,1 2,0 3,1 1,2 1,3 1,3 0,0 0,1 -1,2 0,0 -1,-1 -2,-1 -1,-1 -2,-2 -2,-2 -1,-1 -1,-1 -1,-1 0,0 -1,0 -1,0 -1,-1 0,-1 -1,-2 0,0 0,0 0,0 -1,-1 -1,-2 -1,-2l-1 -1c0,0 0,-1 -1,-1 0,-1 -1,-2 -1,-2l0 -1 0 0c0,0 -1,0 -1,-1 0,0 0,0 0,0 0,0 1,-1 0,-1 0,0 1,-1 1,-1 0,0 0,0 0,-1 1,0 1,0 1,0 0,0 0,0 1,0 1,-1 2,-1 3,-1 0,0 1,0 1,0 1,0 1,0 1,-1 -1,0 -1,0 -2,0 0,0 -1,0 -1,0 0,-1 -1,-1 -1,-1l-1 -1c0,0 0,0 0,0 -1,0 -1,0 -1,0 0,0 0,0 0,0 -1,0 -1,1 -1,1 0,0 0,1 0,2 -1,2 -1,3 -1,4 0,1 0,2 0,2 0,1 0,1 0,1 0,1 1,1 1,2 1,1 -2,3 -2,3 -1,0 -1,-2 -1,-2 0,-1 0,-2 0,-2 0,0 0,0 0,0 0,0 0,-1 0,-1 0,0 -1,0 -1,0 0,0 0,0 0,-1 0,-1 1,-2 1,-4 0,-1 0,-1 0,-2 0,-1 0,-3 0,-3 0,0 1,0 1,-1 0,0 0,0 0,-1 0,0 0,-1 0,-1 0,-1 0,-1 1,-1 0,0 1,-1 1,-1 1,0 1,0 2,1 1,0 1,0 1,0l0 0 0 0 1 0 1 0c0,0 2,1 3,1 0,0 0,0 0,0 0,0 1,-1 1,-2 1,-1 2,-1 2,-2 0,0 0,0 1,-1 0,0 0,-1 0,-2 0,0 1,-1 1,-1 0,0 0,0 0,-2 1,-1 1,-2 1,-2l0 -1c0,0 0,-2 0,-3 0,-1 0,-1 0,-1 0,0 0,0 -1,0 0,-1 0,0 -1,0 0,0 -1,0 -1,1 -1,0 -1,0 -2,0 -1,0 -1,0 -2,0 0,0 0,1 0,1 -1,0 -1,0 -1,0 0,1 0,1 -1,1 0,0 0,0 0,0 0,0 -1,0 -1,0 0,0 0,0 0,0 0,0 0,0 0,0 0,-1 0,-1 0,-1l0 0c0,0 1,0 1,0 0,0 0,0 0,-1 0,0 1,0 1,0 0,0 0,0 0,0 -1,0 -1,0 -1,0 0,0 0,0 0,0 0,0 -1,1 -1,1 0,0 0,0 0,0 -1,0 -1,0 -1,0l0 1c0,0 0,-1 0,-1 -1,0 -1,0 -1,0 0,0 0,0 0,-1 0,0 0,0 0,0 0,-1 0,-1 0,-1l0 0 0 -1c0,0 0,-1 0,-1 1,0 1,0 1,0 1,-1 1,-1 1,-1 1,0 1,-1 1,-1 0,0 1,-1 2,-1 0,-1 0,-2 1,-3 0,0 1,0 1,0 0,0 0,0 0,0 0,-1 0,0 0,0 -1,0 -1,0 -1,0 0,0 0,-1 0,-1 0,0 0,0 0,0 0,0 0,0 0,0 -1,1 -1,0 -1,1 0,0 -1,0 -1,0 -1,0 -1,0 -1,0 0,0 0,0 0,0 0,0 0,-1 1,-1 0,0 0,0 0,0 0,0 1,0 1,0 0,-1 0,0 -1,0 0,0 0,0 0,0 -1,0 0,0 0,-1 0,0 0,0 0,0 0,0 0,0 1,0 0,0 1,-1 1,-1 0,0 1,0 1,1 0,0 1,-1 1,-1 0,0 0,0 1,0 0,0 0,0 -1,-1 0,0 0,0 0,-1 0,0 0,-1 0,-1 0,0 0,1 1,1 0,0 1,0 3,1 0,0 0,0 1,-1 1,0 2,1 2,1 1,0 1,0 1,0l1 0 1 -1c0,0 1,0 1,0 1,0 2,0 1,0 0,1 0,0 -1,0 0,1 0,1 0,1 -1,0 -2,1 -1,1 0,0 0,0 0,0l0 0c0,0 1,0 1,0 1,0 1,0 2,0 0,0 0,0 0,0 1,0 1,0 1,0 1,0 1,0 1,0 1,0 1,0 2,0 0,0 0,0 1,0 0,0 0,0 0,1 0,0 -1,0 -1,0 0,0 0,0 0,0 -1,0 -1,0 -1,0 -1,0 -1,0 -1,0 0,0 0,0 -1,0 0,1 0,1 -1,1 0,0 -1,0 -1,0 -1,0 -2,0 -2,0 1,0 1,0 1,0 0,0 1,0 1,1 0,0 1,0 1,0l0 0c0,0 0,0 1,0 0,0 1,0 1,0 0,0 0,0 1,0 0,0 1,0 1,0 0,0 1,0 1,0 1,0 1,1 1,1 0,0 0,0 0,0 0,0 -1,0 -1,0l0 -1c0,0 -1,0 -1,0 0,0 0,1 0,1 0,0 -1,0 -2,0 0,1 -1,0 -1,0l0 0c0,0 -1,0 -1,0 0,0 0,1 0,1 0,0 1,0 1,0 0,0 0,0 1,0 0,0 0,0 0,0 0,0 0,0 1,0 0,0 0,0 0,0 0,0 0,0 0,0 1,0 1,0 1,0 0,0 1,0 1,0 0,0 0,0 0,0 0,0 0,0 0,0 1,0 1,0 1,0l-1 0 0 1c0,0 0,0 0,0 0,0 -1,0 -1,0l0 0c0,0 -1,0 -1,0 0,0 -1,0 -1,0 0,0 0,0 0,0 0,0 0,0 -1,0 0,0 0,0 -1,0 0,0 0,0 -1,1 0,0 1,0 2,0 1,0 2,0 2,0 1,1 1,1 1,1 0,0 1,0 1,0 0,0 0,0 1,0 0,1 1,0 1,1 0,0 0,0 -1,0 0,0 -1,0 -1,0 -1,0 -1,0 -1,0 -1,0 -2,0 -2,0 -1,0 -2,0 -1,0 0,0 0,0 0,0 0,0 0,1 0,1 0,0 0,0 1,0 0,0 0,0 1,0 1,0 1,0 1,0 0,0 1,1 1,1 0,0 0,0 0,0 0,0 1,0 1,1 0,0 1,-1 1,-1 1,0 1,0 1,1 0,0 0,0 0,0 0,0 -1,0 -1,0 -1,1 -1,0 -1,0 -1,0 -1,0 -2,0 0,0 0,0 0,0 0,0 0,0 0,0 -1,0 -1,0 -1,0 0,0 -1,0 -1,0 0,0 0,0 -1,1 0,0 1,0 2,0 0,0 0,0 1,0 0,0 0,0 0,1 0,0 0,0 0,0 0,0 1,0 1,0 1,0 2,0 2,0l0 0 0 1 0 0 1 0c0,0 0,0 0,0 0,0 0,0 0,0 0,0 0,0 0,0 0,0 0,0 0,0 0,0 0,0 -1,0 0,0 0,0 0,0 -1,0 -1,0 -1,0 0,0 -1,0 -1,0 0,0 0,0 0,0 0,0 -1,0 -1,0 -1,0 0,0 0,0 0,0 0,0 0,0 1,1 1,1 1,1 0,0 0,0 0,0 0,0 -1,0 -1,0 0,0 0,0 -1,0 0,0 0,0 0,0 1,0 1,1 1,1l0 0 0 -1c0,0 1,0 1,0 1,0 1,0 1,0 0,0 1,1 1,1 1,0 1,0 1,0 0,0 1,0 1,0 0,0 0,0 0,0 0,0 0,0 0,0 -1,0 -1,0 -1,0 0,0 0,0 0,0 0,0 0,1 -1,1 0,0 -1,0 -1,0 0,0 -1,-1 -1,0 0,0 -1,0 -1,0 0,0 0,0 0,0 0,0 0,0 0,0l0 0 1 0c0,0 0,0 1,0 0,0 1,0 1,0 0,0 1,0 1,0l0 0 0 0 0 1c0,0 0,0 0,0 0,0 0,0 0,0 0,0 0,0 0,0 0,0 0,0 -1,0 0,0 0,0 0,0 -1,0 -1,0 -1,0 0,0 -1,0 -1,0 0,1 -1,1 -1,1 -1,0 -2,0 -2,0 0,1 1,0 1,0 1,0 2,0 2,0 0,0 0,0 1,0 0,0 1,1 2,1 0,0 0,0 1,0 0,0 0,0 1,-1 0,0 0,-1 1,0 0,0 0,0 0,0 0,0 0,0 0,0 0,0 0,0 0,0 0,0 -1,1 -1,1 0,0 -1,0 -1,1 -1,0 -2,0 -2,0l-1 0c0,0 0,0 0,0 -1,0 -1,0 -2,0 0,0 0,0 -1,0 0,0 0,0 0,0 0,0 1,0 1,0 0,0 1,0 1,0 0,0 1,0 1,0 0,0 0,1 1,1l1 0c0,0 0,0 0,0 0,0 0,0 0,0 0,1 0,1 0,1l0 0 -1 -1 0 0c0,0 0,0 -1,0 0,0 -1,0 -1,0 0,0 0,0 0,1 0,0 0,0 0,0 1,0 1,0 1,0 0,0 1,0 1,0 0,0 1,0 1,0 0,0 0,1 0,1 1,0 1,0 1,0 0,0 0,0 0,0 0,0 0,0 0,0 0,0 0,0 -1,0 0,0 0,0 0,0 0,0 -1,0 -1,0 0,0 -1,0 -1,0 0,0 0,0 0,0 -1,0 -1,0 -1,0 0,0 -1,0 -1,0 0,0 0,0 0,0 -1,0 -1,0 -1,0 0,0 -1,0 -1,0 0,0 0,0 0,1 1,1 2,2 3,3 2,2 5,3 5,3 0,0 1,0 1,1 1,0 3,0 4,1 2,0 4,1 4,1 0,0 1,1 2,2 0,0 1,2 1,2 0,0 0,0 0,0 0,0 0,0 1,0l0 0c0,0 0,-1 1,-1 1,-3 8,-1 8,2 1,10 6,12 7,15 -13,3 -9,-10 -11,-14 -1,-2 -3,0 -4,1 0,0 0,-1 0,0 -1,0 0,0 0,0 0,0 0,1 0,1 0,2 0,3 0,4 0,1 -1,2 -1,3 -1,0 -1,2 -1,2l-2 1c0,0 0,1 0,2 0,1 0,2 1,2 0,1 1,1 1,1 0,0 0,0 1,1 0,0 0,0 0,0 0,0 0,1 0,1 0,0 1,0 0,1 0,0 0,0 0,0 0,0 0,1 0,1 -2,3 -3,4 -4,6 0,1 1,1 0,2 0,0 -1,1 -1,1 0,1 1,2 0,4 -1,1 -5,0 -6,0 0,-1 1,-2 1,-2 1,-1 3,-1 3,-3 0,0 0,-1 0,-2 1,0 3,-4 3,-6 0,0 1,-1 0,-1 0,-1 0,-1 0,-1l-1 -1 -1 -1c0,0 -1,0 -2,-1 0,0 -1,-1 -1,-1 0,0 -1,-2 -1,-2 -1,-2 -1,-3 -1,-4 -1,-2 0,-3 0,-5 0,-1 -1,-2 -1,-2 0,0 0,1 0,2 0,2 0,3 0,5 0,1 0,2 1,3 0,1 0,1 1,2 0,1 0,1 1,1 0,1 0,1 0,1 0,0 1,1 1,1 1,0 1,1 1,1 0,0 0,0 0,0 0,1 0,1 0,2 -5,2 -2,13 -7,14 -1,0 -3,0 -4,0 0,-2 2,-1 4,-3 -1,-1 -1,-1 1,-2 0,-3 1,-9 2,-11 0,-2 -6,-7 -7,-8 0,-1 -1,-2 -1,-2 -1,-1 -1,-2 -1,-3z"/>
  <path class="fil2 str0" d="M751 72c0,0 0,0 0,0 0,1 0,1 1,1 0,1 0,2 0,2 1,0 0,-3 0,-3 -1,0 -1,0 -1,0"/>
  <path class="fil2 str0" d="M752 91c0,0 0,0 0,0 0,0 0,1 0,1 0,0 0,0 0,0 0,0 0,-1 0,-1 0,0 0,0 0,0"/>
  <path class="fil2 str0" d="M748 98c0,0 0,0 0,0 1,0 1,0 1,0 0,0 0,-2 1,-2 0,-1 0,-3 0,-3 0,0 0,0 0,0 0,0 0,0 0,1 0,0 0,0 0,0 0,0 0,0 0,0l-1 1 0 1 0 1 -1 0c0,0 0,0 0,0 0,0 0,0 0,0 0,0 0,0 0,0 0,0 0,0 0,0 0,0 0,1 0,1"/>
  <path class="fil2 str0" d="M747 99c0,0 0,0 0,0 0,1 0,1 0,1 0,0 0,0 0,0 0,0 0,0 0,0 0,0 0,0 0,0 0,0 0,0 0,-1"/>
  <path class="fil2 str0" d="M745 104c0,0 0,0 0,0 0,0 0,0 0,1 0,0 0,0 0,0 0,0 0,1 0,0 1,0 0,0 0,0 0,-1 1,-1 1,-1 0,0 -1,0 -1,0"/>
  <path class="fil2 str0" d="M739 104c0,0 0,0 1,0 0,0 0,0 0,0 0,0 0,0 0,0 0,-1 0,-1 0,-1 0,0 0,0 -1,1"/>
  <path class="fil2 str0" d="M741 99c0,0 0,0 0,0 0,0 0,0 0,0 0,0 0,0 0,0 0,0 0,0 0,0"/>
  <path class="fil2 str0" d="M742 93c0,0 0,0 0,0 0,1 0,1 0,2 0,1 -1,2 -1,2 0,0 0,0 0,0 0,0 1,0 1,0 0,-1 0,-1 0,-2 0,0 0,-1 0,-1 1,0 1,-1 1,-1 0,0 -1,0 -1,0"/>
  <path class="fil2 str0" d="M743 88c0,0 0,0 0,0 0,0 0,1 0,1 0,0 0,0 0,0 0,0 0,0 0,0 0,-1 1,-1 0,-1"/>
  <path class="fil2 str0" d="M724 50c0,0 1,-2 1,-4 0,-1 -1,-3 -1,-3 0,1 0,2 0,3 0,2 -1,4 -1,4 0,0 0,1 1,0"/>
  <path class="fil2 str0" d="M720 56c0,0 0,0 0,0 0,0 0,0 0,0 0,0 1,0 1,-1 1,0 2,0 2,0 0,0 0,0 1,0 0,0 0,0 0,0 0,0 0,0 0,0 0,-1 -1,-1 -2,-1 -2,1 -2,2 -2,2l0 0"/>
  <path class="fil2 str0" d="M716 64c0,0 0,-1 0,-2 0,0 0,-1 0,-1 0,0 0,-1 0,0 0,0 0,0 0,1 0,1 -1,2 0,2"/>
  <path class="fil2 str0" d="M710 62c0,0 0,0 1,0 0,1 1,1 1,1 0,-1 -1,-1 -1,-1 0,0 0,0 0,0l-1 0 0 0 0 0c0,0 0,0 0,0"/>
  <path class="fil2 str0" d="M707 58c0,0 -1,1 -1,1 0,0 1,0 1,0 0,0 1,0 0,0 0,-1 0,-1 0,-1"/>
  <path class="fil2 str0" d="M705 75c-1,0 0,0 0,1 0,0 0,0 0,0 0,0 0,0 0,-1 0,0 0,0 0,0"/>
  <path class="fil2 str0" d="M717 81c0,0 -1,0 -1,0 0,0 1,1 1,1 0,0 0,0 0,0 1,-1 0,-1 0,-1 0,0 0,0 0,0"/>
  <path class="fil2 str0" d="M709 72c0,0 0,0 0,0 0,0 0,1 0,1 0,0 1,1 1,1 0,0 0,0 0,0 0,1 1,1 1,1 0,0 0,0 0,0 0,0 0,0 0,0 0,0 -1,-2 -1,-2 0,0 -1,-1 -1,-1l0 0c0,0 0,0 0,0"/>
  <path class="fil2 str0" d="M708 67c0,0 -1,0 -1,1 0,0 1,0 1,0 0,0 0,0 0,0 0,-1 0,-1 0,-1 0,0 0,0 0,0"/>
  <path class="fil2 str0" d="M715 69c0,0 1,0 0,0 0,0 -2,0 -2,0 -1,0 -1,0 -1,0 0,0 0,0 0,0 0,0 0,0 0,0 0,0 1,0 1,0 0,0 1,0 1,0 0,0 1,0 1,0l0 0"/>
  <path class="fil2 str0" d="M733 75c1,0 -1,-1 -3,-1 -3,-1 -7,-3 -7,-4 0,0 2,1 5,2 2,1 5,2 5,3"/>
  <path class="fil2 str0" d="M740 70c-1,1 -1,1 0,2 0,0 0,-1 0,-2 0,0 1,0 1,-1 0,0 -1,0 -1,1"/>
  <path class="fil2 str0" d="M732 59c-1,1 0,1 0,1 1,2 2,3 4,4 1,0 3,1 3,1 0,0 -2,-1 -4,-2 -1,-1 -2,-2 -3,-3 0,0 0,-1 0,-1"/>
  <path class="fil2 str0" d="M714 37c0,1 -1,2 -1,2 0,0 0,0 0,0 1,-1 1,-1 2,-2 0,0 0,-1 0,-1 0,0 0,-1 0,0 0,0 0,1 -1,1"/>
  <path class="fil2 str0" d="M722 30c0,0 0,0 0,1 0,0 0,0 0,0 0,0 0,0 0,0 1,0 1,0 1,0 0,-1 0,-1 -1,-1 0,0 0,0 0,0"/>
  <path class="fil2 str0" d="M721 40c0,0 1,0 1,-1 1,0 0,0 0,0 0,0 0,-1 0,-1 0,1 -1,2 -1,2"/>
  <path class="fil2 str0" d="M720 38c1,-1 0,1 -1,2 0,0 0,1 0,1 0,0 0,0 0,0 0,0 1,0 1,-1 0,0 0,-1 0,-1 0,0 0,-1 0,-1"/>
  <path class="fil2 str0" d="M721 41c0,0 2,-1 2,-1 0,0 0,-1 0,-1 0,0 0,0 0,0 0,1 -2,2 -2,2"/>
  <path class="fil2 str0" d="M705 62c0,0 0,0 0,0 0,1 0,3 0,3 0,0 1,-2 1,-2 0,-1 0,-1 0,-1 0,0 0,0 -1,0"/>
  <path class="fil2 str0" d="M743 82c0,0 0,2 1,2 0,0 -1,-1 -1,-2 0,0 0,0 0,-1 0,-1 -1,0 0,1"/>
  <path class="fil2 str0" d="M718 35c0,0 -1,0 -1,0 0,1 0,1 0,1 0,0 0,0 0,0 0,0 0,0 1,0 0,0 0,0 0,0 1,0 1,0 1,0 0,0 0,0 0,0 0,0 0,-1 -1,-1 0,0 0,0 0,0"/>
  <path class="fil2 str0" d="M713 42c0,0 0,0 0,0 1,0 1,0 1,0 0,0 0,0 0,0 0,-1 -1,0 -1,0"/>
  <path class="fil2 str0" d="M710 42c0,0 0,0 0,0 0,1 0,1 0,1 0,0 0,0 0,0 0,0 0,0 0,0 0,0 0,0 0,-1 1,0 1,0 1,0 0,0 -1,0 -1,0"/>
  <path class="fil2 str0" d="M718 34c0,0 -1,0 0,1 0,0 0,-1 0,-1 0,0 0,0 1,1 0,0 0,0 0,0 0,0 0,0 0,0 0,0 0,-1 -1,-1 0,0 0,0 0,0"/>
  <path class="fil2 str0" d="M724 34c1,0 1,0 1,0 0,0 0,1 0,0 1,0 0,0 1,0 0,-1 0,0 0,-1 0,0 0,0 1,0 0,0 0,0 -1,0 0,0 0,0 -1,1 0,0 -1,-1 -1,0"/>
  <path class="fil2 str0" d="M724 32c0,0 0,0 -1,0 0,0 0,0 0,0 0,0 1,0 1,0 0,0 1,0 1,0 -1,0 -1,0 -1,0 0,0 0,0 0,0"/>
  <path class="fil2 str0" d="M726 35c0,0 0,0 0,0 0,1 0,1 0,1 0,0 0,0 1,0 0,0 0,-1 0,-1 0,0 0,0 0,0 0,0 -1,0 -1,0"/>
  <path class="fil2 str0" d="M727 36c0,0 0,0 0,1 0,0 0,0 0,0 0,0 0,0 0,0 1,0 1,0 1,0 0,0 0,-1 -1,-1 0,0 0,0 0,0"/>
  <path class="fil2 str0" d="M728 38c0,0 0,0 -1,0 0,0 0,0 0,0 0,0 1,0 1,0 0,0 1,0 1,0 0,0 -1,0 -1,0 0,0 0,0 0,0"/>
  <path class="fil2 str0" d="M729 39c0,0 -1,1 -1,1 0,0 0,0 0,0 0,0 0,0 1,0 0,0 1,0 0,0 0,0 0,0 0,-1 0,0 0,0 0,0"/>
  <path class="fil2 str0" d="M730 43c0,0 -1,0 -1,0 0,0 0,0 0,0 0,0 1,1 1,0 0,0 1,0 1,0 0,0 -1,0 -1,0 0,0 0,0 0,0"/>
  <path class="fil2 str0" d="M729 41c0,0 0,0 0,0 -1,1 0,1 0,1 0,0 0,0 0,0 1,0 1,0 1,0 0,-1 0,-1 0,-1 -1,0 -1,0 -1,0"/>
  <path class="fil2 str0" d="M730 44c0,0 0,0 0,1 0,0 0,0 0,0 0,0 0,0 0,0 1,0 1,0 1,0 0,0 0,-1 -1,-1 0,0 0,0 0,0"/>
  <path class="fil2 str0" d="M731 46c0,0 -1,0 -1,0 0,0 0,0 0,0 0,0 1,0 1,0 0,0 0,0 0,0 0,0 0,0 0,0 0,0 0,0 0,0"/>
  <path class="fil2 str0" d="M731 47c0,0 0,0 0,1 -1,0 0,0 0,0 0,0 0,0 0,0 0,0 0,0 0,0 0,0 0,-1 0,-1 0,0 0,0 0,0"/>
  <path class="fil2 str0" d="M731 49c0,0 0,0 0,0 0,0 0,0 0,0 0,0 0,0 0,0 0,0 1,0 1,0 0,0 -1,0 -1,0 0,0 0,0 0,0"/>
  <path class="fil2 str0" d="M731 50c0,0 0,0 0,0 0,0 0,0 0,0 0,0 0,0 0,0 0,0 1,0 1,0 0,0 -1,0 -1,0 0,0 0,0 0,0"/>
  <path class="fil2 str0" d="M731 51c0,0 0,0 0,0 0,1 0,1 0,1 0,0 0,0 0,0 0,0 1,0 1,-1 0,0 -1,0 -1,0 0,0 0,0 0,0"/>
  <path class="fil2 str0" d="M731 53c0,0 0,0 0,0 0,0 0,0 0,0 0,0 0,0 0,0 0,0 1,0 1,0 0,0 -1,0 -1,0 0,0 0,0 0,0"/>
  <path class="fil2 str0" d="M704 71c0,0 0,1 0,1 0,0 0,-1 0,-1 0,0 0,-1 0,-1 0,0 0,1 0,1"/>
  <path class="fil1" d="M692 41l1 -1c1,1 2,2 2,3 0,1 0,2 -1,3 0,1 -1,2 -2,2 -1,1 -2,1 -3,1 -1,0 -2,-1 -3,-1 -1,-1 -2,-1 -2,-2 -1,-1 -1,-2 -1,-3 0,-1 0,-2 1,-3 0,-1 1,-2 2,-2 1,0 2,-1 3,0l-1 1c0,0 -1,0 -2,0 0,1 -1,1 -1,2 -1,1 -1,1 -1,2 0,1 1,1 1,2 1,1 1,1 2,1 1,1 2,1 3,1 0,0 1,0 2,0 0,-1 1,-1 1,-2 0,0 1,-1 0,-2 0,-1 0,-1 -1,-2z"/>
  <path class="fil1" d="M693 36c-1,-1 -2,-2 -2,-4 -1,-1 0,-3 1,-4 1,-1 1,-1 2,-1 1,-1 2,-1 3,-1 1,1 2,1 3,2 1,1 2,2 2,3 0,1 1,2 0,2 0,1 0,2 -1,3 -1,1 -2,1 -2,2 -1,0 -2,0 -3,0 -1,0 -2,-1 -3,-2zm1 -1c1,1 2,2 3,2 1,0 2,-1 3,-2 1,-1 1,-2 1,-3 0,-1 -1,-2 -2,-3 -1,0 -1,-1 -2,-1 -1,0 -2,0 -2,0 -1,0 -2,0 -2,1 -1,1 -1,2 -1,3 0,1 1,2 2,3z"/>
  <path class="fil1" d="M706 31l-6 -10 1 -1 10 4 -5 -7 2 -1 6 10 -2 0 -10 -4 5 8 -1 1z"/>
  <path class="fil1" d="M719 24l-3 -10 -4 1 0 -1 8 -3 1 1 -4 1 3 10 -1 1z"/>
  <path class="fil1" d="M726 21l-2 -11 1 0 2 11 -1 0z"/>
  <path class="fil1" d="M730 21l0 -12 1 0 7 9 0 -9 1 0 0 12 -1 0 -7 -9 1 9 -2 0z"/>
  <path class="fil1" d="M742 21l2 -11 9 2 -1 1 -6 -2 -1 4 6 1 0 2 -6 -2 -1 4 7 2 -1 1 -8 -2z"/>
  <path class="fil1" d="M752 24l5 -11 2 1 1 11 4 -8 2 1 -6 10 -1 -1 -1 -11 -5 8 -1 0z"/>
  <path class="fil1" d="M765 32l6 -8 -3 -3 1 -1 7 6 -1 1 -3 -2 -6 8 -1 -1z"/>
  <path class="fil1" d="M768 35l12 -4 1 1 -6 11 -1 -1 2 -4 -3 -3 -4 1 -1 -1zm6 -1l2 3 2 -3c1,-1 1,-1 1,-2 0,0 -1,1 -2,1l-3 1z"/>
  <path class="fil1" d="M775 44l11 -5 0 2 -9 4 2 5 -1 1 -3 -7z"/>
  <path class="fil1" d="M778 91l-1 2c-1,-1 -2,-2 -2,-3 0,-1 0,-2 0,-3 1,-2 2,-2 2,-3 1,0 2,-1 3,-1 1,0 2,1 3,1 1,1 2,1 3,2 1,1 1,2 1,3 0,1 0,2 -1,3 0,1 -1,2 -2,2 -1,0 -2,1 -3,0l1 -1c1,0 1,0 2,0 0,-1 1,-1 1,-2 1,-1 1,-1 1,-2 -1,-1 -1,-2 -1,-2 -1,-1 -2,-1 -2,-1 -1,-1 -2,-1 -3,-1 -1,0 -1,0 -2,0 -1,1 -1,1 -1,2 -1,1 -1,2 -1,2 1,1 1,2 2,2z"/>
  <path class="fil1" d="M777 96c1,1 2,3 2,4 1,2 0,3 -1,4 -1,1 -2,2 -2,2 -1,0 -2,0 -3,0 -1,0 -2,-1 -3,-2 -1,0 -2,-1 -2,-2 0,-1 -1,-2 0,-3 0,-1 0,-2 1,-3 1,0 2,-1 2,-1 1,-1 2,-1 3,0 1,0 2,0 3,1zm-1 1c-1,-1 -2,-1 -3,-1 -1,0 -2,0 -3,1 -1,1 -1,2 -1,3 0,1 1,2 2,3 1,1 1,1 2,2 1,0 2,0 2,0 1,-1 2,-1 2,-2 1,0 1,-1 1,-2 0,-2 -1,-3 -2,-4z"/>
  <path class="fil1" d="M764 102l6 10 -1 1 -10 -5 5 8 -2 1 -6 -10 2 -1 10 5 -5 -8 1 -1z"/>
  <path class="fil1" d="M751 109l3 10 4 -1 0 1 -8 3 -1 -1 4 -2 -3 -9 1 -1z"/>
  <path class="fil1" d="M744 111l2 12 -1 0 -2 -12 1 0z"/>
  <path class="fil1" d="M740 112l0 12 -1 0 -7 -9 1 9 -2 0 0 -12 1 0 7 9 0 -9 1 0z"/>
  <path class="fil1" d="M728 112l-2 11 -8 -2 0 -1 7 1 0 -3 -6 -2 0 -1 7 2 1 -4 -7 -2 0 -1 8 2z"/>
  <path class="fil1" d="M718 109l-5 10 -2 -1 -1 -10 -4 8 -1 -1 5 -10 1 0 2 11 4 -8 1 1z"/>
  <path class="fil1" d="M706 101l-7 8 3 2 -1 1 -7 -6 1 -1 3 3 6 -8 2 1z"/>
  <path class="fil1" d="M702 98l-12 3 -1 -1 7 -11 1 2 -2 3 3 4 3 -1 1 1zm-6 0l-2 -3 -2 3c-1,1 -1,1 -1,2 0,0 1,-1 2,-1l3 -1z"/>
  <path class="fil1" d="M695 88l-10 5 -1 -1 10 -5 -3 -5 1 -1 3 7z"/>
  <circle class="fil1 str0" cx="683" cy="67" r="1"/>
  <circle class="fil1 str0" cx="786" cy="67" r="1"/>
  <path class="fil2 str0" d="M755 106l-39 0"/>
  <circle class="fil1" cx="270" cy="22" r="13"/>
 </g>
</svg>
