<?xml version="1.0" encoding="UTF-8" standalone="no"?>
<svg
   xmlns:dc="http://purl.org/dc/elements/1.1/"
   xmlns:cc="http://creativecommons.org/ns#"
   xmlns:rdf="http://www.w3.org/1999/02/22-rdf-syntax-ns#"
   xmlns:svg="http://www.w3.org/2000/svg"
   xmlns="http://www.w3.org/2000/svg"
   viewBox="0 0 643.77332 60.84"
   height="60.84"
   width="643.77332"
   xml:space="preserve"
   id="svg2"
   version="1.1"><metadata
     id="metadata8"><rdf:RDF><cc:Work
         rdf:about=""><dc:format>image/svg+xml</dc:format><dc:type
           rdf:resource="http://purl.org/dc/dcmitype/StillImage" /></cc:Work></rdf:RDF></metadata><defs
     id="defs6" /><g
     transform="matrix(1.3333333,0,0,-1.3333333,0,60.84)"
     id="g10"><g
       transform="scale(0.1)"
       id="g12"><path
         id="path14"
         style="fill:#f68b1d;fill-opacity:1;fill-rule:nonzero;stroke:none"
         d="m 1514.19,39.9375 c 0,-27.6797 -24.65,-37.80078 -40.58,-37.80078 -15.97,0 -43.4,8.72268 -43.4,37.84768 V 184.289 H 1326.25 V 39.9844 c 0,-26.7735 -28.24,-37.84768 -44.19,-37.84768 -15.95,0 -41.37,12.00778 -41.37,37.80078 V 412.574 c 0,31.203 29.1,39.668 45.05,39.668 15.95,0 40.02,-14.344 40.02,-39.668 V 269.527 h 104.45 v 143.047 c 0,31.203 27.89,39.668 43.87,39.668 15.93,0 40.11,-11.519 40.11,-39.668 V 39.9375" /><path
         id="path16"
         style="fill:#f68b1d;fill-opacity:1;fill-rule:nonzero;stroke:none"
         d="m 1892.58,15.7852 c -29.38,-29.3829 -57.46,-3.918 -62.05,0.6992 l -144.08,170.6366 0.72,81.551 75.21,0.957 c 31.95,0 57.35,12.43 57.35,46.031 0,29.363 -29.15,50.793 -55.71,50.793 H 1690 l -2.83,-328.8163 c 0,-29.12498 -26.93,-34.81639 -41.9,-34.81639 -15,0 -41.09,6.6211 -41.09,31.99609 V 415.031 c 0,24.977 21.55,37.196 40.76,37.196 h 117.91 c 64.85,0 141.72,-58.278 141.72,-134.723 0,-108.996 -89.37,-117.93 -114.62,-126.047 L 1892.81,73.5977 c 6.7,-6.6954 24.21,-33.3711 -0.23,-57.8125" /><path
         id="path18"
         style="fill:#f68b1d;fill-opacity:1;fill-rule:nonzero;stroke:none"
         d="m 993.992,387.324 c 0,-36.683 -29.734,-66.441 -66.441,-66.441 -36.684,0 -66.414,29.758 -66.414,66.441 0,36.684 29.73,66.442 66.414,66.442 36.707,0 66.441,-29.758 66.441,-66.442" /><path
         id="path20"
         style="fill:#f68b1d;fill-opacity:1;fill-rule:nonzero;stroke:none"
         d="m 826.02,389.836 c 0,-36.684 -29.735,-66.441 -66.442,-66.441 -36.683,0 -66.414,29.757 -66.414,66.441 0,36.684 29.731,66.441 66.414,66.441 36.707,0 66.442,-29.757 66.442,-66.441" /><path
         id="path22"
         style="fill:#f68b1d;fill-opacity:1;fill-rule:nonzero;stroke:none"
         d="m 991.488,224.379 c 0,-36.684 -29.734,-66.441 -66.441,-66.441 -36.684,0 -66.418,29.757 -66.418,66.441 0,36.684 29.734,66.441 66.418,66.441 36.707,0 66.441,-29.757 66.441,-66.441" /><path
         id="path24"
         style="fill:#f68b1d;fill-opacity:1;fill-rule:nonzero;stroke:none"
         d="m 823.516,226.891 c 0,-36.684 -29.735,-66.442 -66.442,-66.442 -36.683,0 -66.418,29.758 -66.418,66.442 0,36.683 29.735,66.437 66.418,66.437 36.707,0 66.442,-29.754 66.442,-66.437" /><path
         id="path26"
         style="fill:#f68b1d;fill-opacity:1;fill-rule:nonzero;stroke:none"
         d="m 649.289,225.633 c 0,-36.684 -29.734,-66.442 -66.441,-66.442 -36.684,0 -66.414,29.758 -66.414,66.442 0,36.683 29.73,66.441 66.414,66.441 36.707,0 66.441,-29.758 66.441,-66.441" /><path
         id="path28"
         style="fill:#f68b1d;fill-opacity:1;fill-rule:nonzero;stroke:none"
         d="m 481.324,225.633 c 0,-36.684 -29.734,-66.442 -66.437,-66.442 -36.684,0 -66.418,29.758 -66.418,66.442 0,36.683 29.734,66.441 66.418,66.441 36.703,0 66.437,-29.758 66.437,-66.441" /><path
         id="path30"
         style="fill:#f68b1d;fill-opacity:1;fill-rule:nonzero;stroke:none"
         d="M 993.992,66.4414 C 993.992,29.7578 964.258,0 927.551,0 c -36.684,0 -66.414,29.7578 -66.414,66.4414 0,36.6836 29.73,66.4416 66.414,66.4416 36.707,0 66.441,-29.758 66.441,-66.4416" /><path
         id="path32"
         style="fill:#f68b1d;fill-opacity:1;fill-rule:nonzero;stroke:none"
         d="m 823.516,70.2109 c 0,-36.6836 -29.735,-66.44137 -66.442,-66.44137 -36.683,0 -66.418,29.75777 -66.418,66.44137 0,36.6841 29.735,66.4371 66.418,66.4371 36.707,0 66.442,-29.753 66.442,-66.4371" /><path
         id="path34"
         style="fill:#f68b1d;fill-opacity:1;fill-rule:nonzero;stroke:none"
         d="m 651.793,67.6992 c 0,-36.6836 -29.734,-66.44139 -66.441,-66.44139 -36.68,0 -66.414,29.75779 -66.414,66.44139 0,36.6838 29.734,66.4378 66.414,66.4378 36.707,0 66.441,-29.754 66.441,-66.4378" /><path
         id="path36"
         style="fill:#f68b1d;fill-opacity:1;fill-rule:nonzero;stroke:none"
         d="m 483.832,67.6992 c 0,-36.6836 -29.734,-66.44139 -66.441,-66.44139 -36.684,0 -66.418,29.75779 -66.418,66.44139 0,36.6838 29.734,66.4378 66.418,66.4378 36.707,0 66.441,-29.754 66.441,-66.4378" /><path
         id="path38"
         style="fill:#f68b1d;fill-opacity:1;fill-rule:nonzero;stroke:none"
         d="m 308.348,72.7148 c 0,-36.6835 -29.735,-66.44136 -66.442,-66.44136 -36.683,0 -66.414,29.75786 -66.414,66.44136 0,36.6832 29.731,66.4372 66.414,66.4372 36.707,0 66.442,-29.754 66.442,-66.4372" /><path
         id="path40"
         style="fill:#f68b1d;fill-opacity:1;fill-rule:nonzero;stroke:none"
         d="M 132.855,70.2109 C 132.855,33.5273 103.121,3.76953 66.418,3.76953 29.7344,3.76953 0,33.5273 0,70.2109 c 0,36.6841 29.7344,66.4371 66.418,66.4371 36.703,0 66.437,-29.753 66.437,-66.4371" /><path
         id="path42"
         style="fill:#8a8d8d;fill-opacity:1;fill-rule:nonzero;stroke:none"
         d="m 2254.97,249.637 c 0,-15.114 -7.55,-22.668 -22.69,-22.668 H 2043.29 V 22.8672 c 0,-15.10939 -7.55,-22.687512 -22.66,-22.687512 -15.11,0 -22.67,7.578122 -22.67,22.687512 V 431.395 c 0,14.902 7.46,22.363 22.36,22.363 h 211.96 c 15.14,0 22.69,-7.555 22.69,-22.668 0,-15.11 -7.55,-22.664 -22.69,-22.664 H 2043.29 V 272.305 h 188.99 c 15.14,0 22.69,-7.559 22.69,-22.668" /><path
         id="path44"
         style="fill:#8a8d8d;fill-opacity:1;fill-rule:nonzero;stroke:none"
         d="m 2643.56,226.973 c 0,-54.246 -13.78,-103.52 -41.32,-147.8753 -32.79,-52.6133 -76.4,-78.918012 -130.83,-78.918012 -54.45,0 -98.06,26.304712 -130.87,78.918012 -27.52,44.3553 -41.33,93.6293 -41.33,147.8753 0,54.218 13.81,103.519 41.33,147.871 32.81,52.613 76.42,78.918 130.87,78.918 54.43,0 98.04,-26.305 130.83,-78.918 27.54,-44.352 41.32,-93.653 41.32,-147.871 m -49.18,0 c 0,26.422 -3.62,51.211 -10.85,74.39 -8.51,27.426 -21.61,51.028 -39.34,70.778 -21.85,24.207 -46.12,36.285 -72.78,36.285 -26.68,0 -50.98,-12.078 -72.83,-36.285 -17.7,-19.75 -30.83,-43.352 -39.34,-70.778 -7.23,-23.179 -10.82,-47.968 -10.82,-74.39 0,-26.422 3.59,-51.211 10.82,-74.395 8.51,-27.422 21.64,-51.023 39.34,-70.7772 21.85,-24.2031 46.15,-36.2852 72.83,-36.2852 26.66,0 50.93,12.0821 72.78,36.2852 17.73,19.7542 30.83,43.3552 39.34,70.7772 7.23,23.184 10.85,47.973 10.85,74.395" /><path
         id="path46"
         style="fill:#8a8d8d;fill-opacity:1;fill-rule:nonzero;stroke:none"
         d="m 3008.16,23.3398 c 0,-6.2031 -2.31,-11.6367 -6.93,-16.25386 -4.59,-4.59766 -9.98,-6.906252 -16.16,-6.906252 -5.8,0 -11.01,2.335942 -15.6,6.953122 L 2791.16,230.539 c -6.62,6.649 -9.96,12.899 -9.96,18.75 0,15.301 9.05,22.973 27.22,22.973 h 63.73 c 24.98,0 83.96,6.761 83.96,75.394 0,54.707 -58.98,60.774 -83.96,60.774 H 2766.4 V 22.8711 c 0,-15.10938 -7.56,-22.691412 -22.67,-22.691412 -15.11,0 -22.65,7.582032 -22.65,22.691412 V 431.375 c 0,14.926 7.44,22.387 22.35,22.387 h 128.72 c 37.48,0 129.32,-10.028 129.32,-106.106 0,-107.183 -91.96,-120.73 -129.48,-120.73 l -13.31,-0.211 142.62,-187.7502 c 4.57,-4.6171 6.86,-9.8203 6.86,-15.625" /><path
         id="path48"
         style="fill:#8a8d8d;fill-opacity:1;fill-rule:nonzero;stroke:none"
         d="m 3354.66,22.8555 c 0,-15.11331 -7.56,-22.671906 -22.69,-22.671906 h -211.66 c -6.04,0 -11.31,2.265626 -15.85,6.812496 -4.53,4.52341 -6.79,9.81641 -6.79,15.85941 V 431.074 c 0,6.067 2.26,11.336 6.79,15.883 4.54,4.547 9.81,6.809 15.85,6.809 h 211.66 c 15.13,0 22.69,-7.555 22.69,-22.664 0,-15.114 -7.56,-22.668 -22.69,-22.668 H 3142.98 V 272.289 h 188.99 c 15.13,0 22.69,-7.531 22.69,-22.644 0,-15.114 -7.56,-22.668 -22.69,-22.668 H 3142.98 V 45.5195 h 188.99 c 15.13,0 22.69,-7.5547 22.69,-22.664" /><path
         id="path50"
         style="fill:#8a8d8d;fill-opacity:1;fill-rule:nonzero;stroke:none"
         d="m 3747.9,82.918 c 0,-4.4571 -1.72,-9.1914 -5.13,-14.25 -14.13,-20.1953 -33.21,-36.6602 -57.27,-49.3946 -24.07,-12.73043 -48.51,-19.097619 -73.3,-19.097619 -54.57,0 -99.51,24.789019 -134.77,74.390619 -31.41,44.5666 -47.13,95.3596 -47.13,152.3986 0,57.043 15.72,107.855 47.13,152.422 35.26,49.582 80.2,74.371 134.77,74.371 24.79,0 49.23,-6.344 73.3,-19.031 24.06,-12.684 43.14,-29.106 57.27,-49.25 3.41,-5.039 5.13,-9.797 5.13,-14.204 0,-6.043 -2.38,-11.406 -7.11,-16.023 -4.74,-4.641 -10.22,-6.949 -16.47,-6.949 -3.82,0 -8.44,1.867 -13.75,5.574 -5.34,3.73 -8.49,7.301 -9.52,10.75 -0.21,0.398 -2.31,2.707 -6.34,6.926 -24.58,24.582 -52.08,36.871 -82.51,36.871 -27.98,0 -53.66,-10.774 -77.05,-32.371 -20.75,-18.934 -36.26,-42.817 -46.55,-71.66 -8.65,-24.184 -12.96,-50 -12.96,-77.426 0,-27.422 4.31,-53.238 12.96,-77.422 10.29,-28.824 25.7,-52.7266 46.25,-71.6641 23.36,-21.5703 49.16,-32.3672 77.35,-32.3672 30.22,0 57.74,12.3594 82.51,37.0547 1.82,1.4219 3.92,3.6367 6.34,6.6719 0.21,3.0273 3.29,6.5742 9.21,10.6328 5.95,4.0549 10.64,6.0859 14.06,6.0859 6.25,0 11.73,-2.332 16.47,-6.9726 4.73,-4.6406 7.11,-10.0039 7.11,-16.0664" /><path
         id="path52"
         style="fill:#8a8d8d;fill-opacity:1;fill-rule:nonzero;stroke:none"
         d="m 4108.14,22.1719 c 0,-14.6719 -7.84,-21.992212 -23.44,-21.992212 -10.45,0 -17.35,5.269532 -20.73,15.808612 L 4023.79,136.461 H 3874.56 L 3834.38,15.9883 c -3.4,-10.53908 -10.31,-15.808612 -20.71,-15.808612 -15.62,0 -23.46,7.273442 -23.46,21.781212 0,2.6094 0.51,5.3399 1.52,8.1602 L 3926.52,434.73 c 4.24,12.688 11.78,19.028 22.64,19.028 10.89,0 18.45,-6.34 22.67,-19.028 L 4106.6,30.4023 c 1.03,-2.8437 1.54,-5.5976 1.54,-8.2304 m -99.46,159.6251 -59.52,178.543 -59.49,-178.543 h 119.01" /><path
         id="path54"
         style="fill:#8a8d8d;fill-opacity:1;fill-rule:nonzero;stroke:none"
         d="m 4484.41,136.316 c 0,-40.9254 -18.33,-74.5308 -54.99,-100.7418 -33.04,-23.6015 -70.82,-35.378887 -113.33,-35.378887 -27.59,0 -54.39,5.457027 -80.39,16.347687 -28.38,12.1289 -49.74,28.6875 -64.04,49.7187 -3.24,4.8281 -4.85,9.4922 -4.85,13.9492 0,6.0391 2.38,11.3555 7.12,15.9024 4.73,4.5467 10.21,6.8127 16.46,6.8127 5.83,0 11.66,-3.1526 17.54,-9.426 2.8,-3.4258 7.23,-8.3008 13.29,-14.5742 24.58,-22.2695 56.2,-33.418 94.87,-33.418 29.64,0 56.62,7.5781 80.99,22.7149 28.01,17.5351 42,40.2503 42,68.0933 0,27.844 -13.99,50.539 -42,68.098 -24.37,15.133 -51.35,22.715 -80.99,22.715 -35.24,0 -66.58,9.863 -93.96,29.613 -30.25,21.762 -45.34,49.653 -45.34,83.699 0,34.047 15.09,61.938 45.34,83.696 27.38,19.754 58.72,29.617 93.96,29.617 22.76,0 44.75,-4.524 65.88,-13.594 23.36,-9.867 40.99,-23.367 52.89,-40.484 3.42,-4.641 5.13,-9.281 5.13,-13.899 0,-6.043 -2.41,-11.336 -7.23,-15.859 -4.85,-4.547 -10.29,-6.809 -16.35,-6.809 -5.64,0 -11.57,3.125 -17.82,9.375 -23.57,23.973 -51.07,35.934 -82.5,35.934 -22.37,0 -42.8,-5.641 -61.34,-16.906 -21.75,-13.106 -32.62,-30.129 -32.62,-51.071 0,-20.941 10.87,-37.988 32.62,-51.07 18.54,-11.289 38.97,-16.91 61.34,-16.91 42.51,0 80.29,-11.801 113.33,-35.398 36.66,-26.239 54.99,-59.821 54.99,-100.747" /><path
         id="path56"
         style="fill:#8a8d8d;fill-opacity:1;fill-rule:nonzero;stroke:none"
         d="m 4828.33,431.102 c 0,-15.114 -7.56,-22.672 -22.69,-22.672 H 4692.35 V 22.8789 c 0,-15.13671 -7.56,-22.695306 -22.67,-22.695306 -15.11,0 -22.67,7.558596 -22.67,22.695306 V 408.43 h -113.33 c -15.09,0 -22.65,7.558 -22.65,22.672 0,15.109 7.56,22.664 22.65,22.664 h 271.96 c 15.13,0 22.69,-7.555 22.69,-22.664" /></g></g></svg>